<svg xmlns="http://www.w3.org/2000/svg" width="1398" height="485" viewBox="0 0 1398 485">
  <path id="exivity_path" data-name="exivity path" fill="#00a8d8" d="M138.984,117.82C54.89,117.82.283,197.11,0.283,276.4c0,58.511,24.027,95.7,85.732,95.7,50.784,0,82.456-19.686,96.654-35.544,6.553-6.562,10.921-16.405,10.921-30.622,0-10.937-2.184-17.5-6.007-21.326-17.474,14.217-44.231,32.262-78.087,32.262-26.757,0-37.678-16.4-37.678-38.824v-6.562c48.6-1.64,137.608-24.06,137.608-92.96,0-38.825-28.942-60.7-69.9-60.7h-0.546Zm-9.83,44.293c13.106,0,19.659,11.483,19.659,19.686,0,13.67-11.468,41.558-74.265,45.933,9.283-46.48,33.856-65.619,54.06-65.619h0.546Zm119.063-33.356c7.645,20.232,37.678,84.211,50.238,111.552-63.89,63.432-93.924,95.148-93.924,107.725,0,13.67,30.58,35,40.955,35,6.007-12.577,34.948-44.839,77.542-89.679,15.835,35.544,20.75,48.121,29.487,63.432,5.461,8.749,11.467,12.03,20.751,12.03,15.289,0,55.7-1.641,64.435-4.375v-1.093c-14.744-25.7-38.224-75.462-59.521-120.849,40.955-40.465,82.456-84.758,87.37-101.709,1.639-13.671-28.941-32.263-39.862-32.263-10.922,17.5-38.771,50.855-71.535,84.211-12.013-26.794-18.566-43.2-26.211-60.151-3.276-7.108-7.1-14.764-14.2-14.764-17.474,0-58.975,6.562-65.527,9.3v1.641ZM552.947-.841c-13.651,0-41.5,11.483-39.316,45.386,2.184,30.075,21.842,35.544,36.04,35.544,18.02,0,40.955-16.4,39.317-45.933-1.639-25.7-15.29-35-35.5-35h-0.546ZM570.421,117.82c-6.552,0-59.521,10.39-66.074,13.671,0.547,8.2-2.184,35.543-9.829,92.413-7.1,51.4-18.02,110.459-22.934,146,30.579-.547,61.7-7.109,67.712-10.937,4.914-2.734,7.645-8.2,9.283-17.5,6.552-38.825,15.29-108.819,25.665-182.093,4.914-35,3.822-41.559-3.277-41.559h-0.546ZM839.1,150.63c0-19.686-2.184-32.81-8.191-32.81-16.382,0-39.316,7.656-49.692,10.937,0,2.734.547,5.468,0.547,8.2,0,43.746-44.778,120.848-76.45,150.924-1.638-3.828-4.368-16.4-4.914-24.607-2.73-53.589-4.369-79.837-3.823-132.879,0-9.3-1.092-12.577-6.006-12.577-9.283,0-56.245,9.3-65.528,12.03,0,24.061,4.914,121.4,9.283,164.048,3.276,30.622,9.829,73.274,15.29,78.2,8.737,0,33.31-4.375,43.685-8.749,6.553-3.281,16.382-8.2,22.389-13.124,19.658-15.858,58.429-59.057,87.37-106.631,18.566-30.075,36.04-69.994,36.04-92.413V150.63ZM933.606-.841c-13.652,0-41.5,11.483-39.317,45.386,2.184,30.075,21.842,35.544,36.04,35.544,18.02,0,40.955-16.4,39.317-45.933-1.638-25.7-15.29-35-35.494-35h-0.546ZM951.08,117.82c-6.553,0-59.521,10.39-66.074,13.671,0.546,8.2-2.184,35.543-9.829,92.413-7.1,51.4-18.021,110.459-22.935,146,30.58-.547,61.705-7.109,67.712-10.937,4.915-2.734,7.645-8.2,9.283-17.5,6.553-38.825,15.29-108.819,25.665-182.093,4.915-35,3.823-41.559-3.276-41.559H951.08Zm183.5,177.171c-14.2,10.39-34.41,20.78-49.15,20.78-10.92,0-15.84-8.749-13.11-26.248,2.73-18.592,12.56-78.2,18.57-113.193,23.48,0,39.32.547,48.6-4.921,12.56-7.656,18.57-26.794,20.75-44.293-10.92,1.094-21.84,2.188-61.71,2.188,4.92-25.154,10.38-55.777,13.11-71.635-17.47,0-42.59,6.015-50.78,9.843-10.38,5.468-20.75,15.311-30.58,61.792h-19.66c-13.107,0-23.482,29.528-23.482,47.026h36.042c-6.01,36.091-13.65,75.462-19.11,112.646-9.834,62.885,14.74,83.118,48.05,83.118,28.39,0,51.88-8.749,67.71-22.967,12.56-9.843,18.57-42.105,15.29-53.589Zm50.25,189.2c23.48-12.577,84.09-74.368,129.41-142.721,67.72-102.8,83.01-159.673,83.01-207.794,0-9.843-2.19-15.858-6.01-15.858-15.84,0-45.32,6.015-50.24,8.2-4.91,58.51-31.12,125.222-64.98,176.077-2.73-7.109-6.55-21.326-8.74-39.371-4.37-35-9.83-97.882-12.01-135.066-0.55-6.015-2.18-9.843-8.74-9.843-10.37,0-45.32,7.109-64.43,13.671,2.73,46.48,15.83,149.283,25.66,197.95,3.82,18.593,9.29,29.529,13.11,40.466-18.02,21.873-55.7,58.51-85.19,83.117C1140.05,467.241,1161.89,484.193,1184.83,484.193Z"/>
</svg>
