<?xml version="1.0" encoding="UTF-8" standalone="no"?>
<!DOCTYPE svg PUBLIC "-//W3C//DTD SVG 1.1//EN" "http://www.w3.org/Graphics/SVG/1.1/DTD/svg11.dtd">
<svg width="100%" height="100%" viewBox="0 0 305 103" version="1.1" xmlns="http://www.w3.org/2000/svg" xmlns:xlink="http://www.w3.org/1999/xlink" xml:space="preserve" xmlns:serif="http://www.serif.com/" style="fill-rule:evenodd;clip-rule:evenodd;stroke-linejoin:round;stroke-miterlimit:2;">
    <g id="Artboard1" transform="matrix(0.297694,0,0,0.133991,0,0)">
        <rect x="0" y="0" width="1024" height="768" style="fill:none;"/>
        <g transform="matrix(3.35915,0,0,7.46321,-1009.22,-1912.63)">
            <g transform="matrix(64,0,0,64,330.074,331.704)">
                <path d="M0.193,-0.72L0.635,-0.72C0.673,-0.72 0.706,-0.707 0.733,-0.68C0.76,-0.653 0.774,-0.62 0.774,-0.581L0.774,-0.139C0.774,-0.1 0.76,-0.068 0.733,-0.041C0.706,-0.014 0.673,-0 0.635,-0L0.193,-0C0.154,-0 0.122,-0.014 0.095,-0.041C0.068,-0.068 0.054,-0.1 0.054,-0.139L0.054,-0.581C0.054,-0.62 0.068,-0.653 0.095,-0.68C0.122,-0.707 0.154,-0.72 0.193,-0.72ZM0.193,-0.132L0.635,-0.132C0.639,-0.132 0.641,-0.134 0.641,-0.139L0.641,-0.581C0.641,-0.586 0.639,-0.588 0.635,-0.588L0.193,-0.588C0.188,-0.588 0.186,-0.586 0.186,-0.581L0.186,-0.139C0.186,-0.134 0.188,-0.132 0.193,-0.132Z" style="fill-rule:nonzero;"/>
            </g>
            <g transform="matrix(64,0,0,64,383.066,331.704)">
                <path d="M0.19,-0.58L0.512,-0.58L0.512,-0.449L0.19,-0.449C0.185,-0.449 0.183,-0.447 0.183,-0.442L0.183,-0L0.052,-0L0.052,-0.442C0.052,-0.48 0.066,-0.513 0.093,-0.54C0.12,-0.567 0.152,-0.58 0.19,-0.58Z" style="fill-rule:nonzero;"/>
            </g>
            <g transform="matrix(64,0,0,64,416.858,331.704)">
                <path d="M0.505,-0.58C0.543,-0.58 0.576,-0.567 0.603,-0.54C0.63,-0.513 0.643,-0.48 0.643,-0.442L0.643,-0.138C0.643,-0.1 0.63,-0.068 0.603,-0.041C0.576,-0.014 0.543,-0 0.505,-0L0.054,-0L0.054,-0.77L0.185,-0.77L0.185,-0.58L0.505,-0.58ZM0.512,-0.138L0.512,-0.442C0.512,-0.447 0.51,-0.449 0.505,-0.449L0.192,-0.449C0.187,-0.449 0.185,-0.447 0.185,-0.442L0.185,-0.138C0.185,-0.133 0.187,-0.131 0.192,-0.131L0.505,-0.131C0.51,-0.131 0.512,-0.133 0.512,-0.138Z" style="fill-rule:nonzero;"/>
            </g>
            <g transform="matrix(64,0,0,64,459.546,331.704)">
                <path d="M0.052,-0L0.052,-0.58L0.183,-0.58L0.183,-0L0.052,-0ZM0.052,-0.77L0.183,-0.77L0.183,-0.638L0.052,-0.638L0.052,-0.77Z" style="fill-rule:nonzero;"/>
            </g>
            <g transform="matrix(64,0,0,64,474.458,331.704)">
                <path d="M0.41,-0.449L0.184,-0.449L0.184,-0.138C0.184,-0.133 0.186,-0.131 0.191,-0.131L0.41,-0.131L0.41,-0L0.191,-0C0.152,-0 0.12,-0.014 0.093,-0.041C0.066,-0.068 0.053,-0.1 0.053,-0.138L0.053,-0.77L0.184,-0.77L0.184,-0.58L0.41,-0.58L0.41,-0.449Z" style="fill-rule:nonzero;"/>
            </g>
            <g transform="matrix(64,0,0,64,502.426,331.704)">
                <rect x="0.054" y="-0.131" width="0.131" height="0.131" style="fill-rule:nonzero;"/>
            </g>
            <g transform="matrix(64,0,0,64,516.122,331.704)">
                <path d="M0.07,-0.77L0.201,-0.77L0.201,-0.638L0.07,-0.638L0.07,-0.77ZM0.201,-0.58L0.201,0.081C0.201,0.119 0.188,0.152 0.161,0.179C0.133,0.206 0.101,0.219 0.063,0.219L-0.187,0.219L-0.187,0.087L0.063,0.087C0.068,0.087 0.07,0.085 0.07,0.081L0.07,-0.58L0.201,-0.58Z" style="fill-rule:nonzero;"/>
            </g>
            <g transform="matrix(64,0,0,64,531.418,331.704)">
                <path d="M0.637,-0.442L0.637,-0.417L0.506,-0.417L0.506,-0.442C0.506,-0.447 0.504,-0.449 0.499,-0.449L0.186,-0.449C0.181,-0.449 0.179,-0.447 0.179,-0.442L0.179,-0.362C0.179,-0.358 0.181,-0.356 0.186,-0.356L0.499,-0.356C0.538,-0.356 0.57,-0.342 0.597,-0.316C0.624,-0.289 0.637,-0.256 0.637,-0.218L0.637,-0.138C0.637,-0.1 0.624,-0.068 0.597,-0.041C0.57,-0.014 0.538,-0 0.499,-0L0.186,-0C0.148,-0 0.116,-0.014 0.089,-0.041C0.062,-0.068 0.048,-0.1 0.048,-0.138L0.048,-0.163L0.179,-0.163L0.179,-0.138C0.179,-0.133 0.181,-0.131 0.186,-0.131L0.499,-0.131C0.504,-0.131 0.506,-0.133 0.506,-0.138L0.506,-0.218C0.506,-0.222 0.504,-0.224 0.499,-0.224L0.186,-0.224C0.148,-0.224 0.116,-0.238 0.089,-0.265C0.062,-0.292 0.048,-0.324 0.048,-0.362L0.048,-0.442C0.048,-0.48 0.062,-0.513 0.089,-0.54C0.116,-0.567 0.148,-0.58 0.186,-0.58L0.499,-0.58C0.538,-0.58 0.57,-0.567 0.597,-0.54C0.624,-0.513 0.637,-0.48 0.637,-0.442Z" style="fill-rule:nonzero;"/>
            </g>
        </g>
    </g>
</svg>
